<svg width="62" height="62" viewBox="0 0 62 62" fill="none" xmlns="http://www.w3.org/2000/svg">
<path d="M44.9539 33.8409L59.6434 37.0766L48.6679 60.1826L43.6538 59.1937L44.9539 33.8409Z" fill="#F8E433"/>
<path d="M28.9595 19L38.9595 30.5002L17.0589 43.2356L13.4236 39.6434L28.9595 19Z" fill="#F8E433"/>
<path d="M24.9595 0L25.9595 14L1.14315 12.1141L0.45996 7L24.9595 0Z" fill="#F8E433"/>
<mask id="path-4-inside-1_1215_9" fill="white">
<path d="M62.125 33.25C57.775 33.25 53.4675 32.3932 49.4486 30.7285C45.4297 29.0638 41.778 26.6238 38.7021 23.5479C35.6261 20.472 33.1862 16.8203 31.5215 12.8014C29.8568 8.78247 29 4.47503 29 0.124989L62.125 0.124992L62.125 33.25Z"/>
</mask>
<path d="M62.125 33.25C57.775 33.25 53.4675 32.3932 49.4486 30.7285C45.4297 29.0638 41.778 26.6238 38.7021 23.5479C35.6261 20.472 33.1862 16.8203 31.5215 12.8014C29.8568 8.78247 29 4.47503 29 0.124989L62.125 0.124992L62.125 33.25Z" fill="#F8E433" stroke="#F8E433" stroke-width="24" mask="url(#path-4-inside-1_1215_9)"/>
</svg>
